<svg width="10" height="104" viewBox="0 0 10 104" fill="none" xmlns="http://www.w3.org/2000/svg">
  <path
    d="M10 100.305V104H0V0L10 -7.62939e-06V2.93288C8.5483 2.93288 7.37758 4.39932 7.37758 6.21771C7.37758 8.0361 8.5483 9.50253 10 9.50253V13.022C8.5483 13.022 7.37758 14.4884 7.37758 16.3068C7.37758 18.1252 8.5483 19.5917 10 19.5917V23.1111C8.5483 23.1111 7.37758 24.5775 7.37758 26.3959C7.37758 28.2143 8.5483 29.6808 10 29.6808V33.2002C8.5483 33.2002 7.37758 34.6667 7.37758 36.4851C7.37758 38.3034 8.5483 39.7699 10 39.7699V43.2893C8.5483 43.2893 7.37758 44.7558 7.37758 46.5742C7.37758 48.3926 8.5483 49.859 10 49.859V53.3785C8.5483 53.3785 7.37758 54.8449 7.37758 56.6633C7.37758 58.4817 8.5483 59.9481 10 59.9481V63.4676C8.5483 63.4676 7.37758 64.934 7.37758 66.7524C7.37758 68.5708 8.5483 70.0372 10 70.0372V73.5567C8.5483 73.5567 7.37758 75.0231 7.37758 76.8415C7.37758 78.6599 8.5483 80.1263 10 80.1263V83.6458C8.5483 83.6458 7.37758 85.1122 7.37758 86.9306C7.37758 88.749 8.5483 90.2155 10 90.2155V93.7349C8.5483 93.7349 7.37758 95.2014 7.37758 97.0197C7.37758 98.8381 8.5483 100.305 10 100.305Z"
    fill="#CC3366" />
</svg>
