<svg width="10" height="104" viewBox="0 0 10 104" fill="none" xmlns="http://www.w3.org/2000/svg">
  <path
    d="M0 3.69543V0H10V104L0 104V101.067C1.4517 101.067 2.62242 99.6007 2.62242 97.7823C2.62242 95.9639 1.4517 94.4975 0 94.4975V90.978C1.4517 90.978 2.62242 89.5116 2.62242 87.6932C2.62242 85.8748 1.4517 84.4083 0 84.4083V80.8889C1.4517 80.8889 2.62242 79.4225 2.62242 77.6041C2.62242 75.7857 1.4517 74.3192 0 74.3192V70.7998C1.4517 70.7998 2.62242 69.3333 2.62242 67.5149C2.62242 65.6966 1.4517 64.2301 0 64.2301V60.7107C1.4517 60.7107 2.62242 59.2442 2.62242 57.4258C2.62242 55.6074 1.4517 54.141 0 54.141V50.6215C1.4517 50.6215 2.62242 49.1551 2.62242 47.3367C2.62242 45.5183 1.4517 44.0519 0 44.0519V40.5324C1.4517 40.5324 2.62242 39.066 2.62242 37.2476C2.62242 35.4292 1.4517 33.9628 0 33.9628V30.4433C1.4517 30.4433 2.62242 28.9769 2.62242 27.1585C2.62242 25.3401 1.4517 23.8737 0 23.8737V20.3542C1.4517 20.3542 2.62242 18.8878 2.62242 17.0694C2.62242 15.251 1.4517 13.7845 0 13.7845V10.2651C1.4517 10.2651 2.62242 8.79865 2.62242 6.98026C2.62242 5.16187 1.4517 3.69543 0 3.69543Z"
    fill="#CC3366" />
</svg>
